<mxfile host="65bd71144e">
    <diagram id="wZYi_lF7au_rLm3weGS6" name="Page-1">
        <mxGraphModel dx="465" dy="523" grid="1" gridSize="10" guides="1" tooltips="1" connect="1" arrows="1" fold="1" page="1" pageScale="1" pageWidth="850" pageHeight="1100" math="0" shadow="0">
            <root>
                <mxCell id="0"/>
                <mxCell id="1" parent="0"/>
                <mxCell id="2" value="" style="rounded=1;whiteSpace=wrap;html=1;" vertex="1" parent="1">
                    <mxGeometry x="80" y="110" width="290" height="210" as="geometry"/>
                </mxCell>
                <mxCell id="3" value="Bild" style="whiteSpace=wrap;html=1;aspect=fixed;" vertex="1" parent="1">
                    <mxGeometry x="230" y="140" width="100" height="100" as="geometry"/>
                </mxCell>
                <mxCell id="4" value="Button&amp;nbsp; &amp;nbsp;LÃ¶schen" style="rounded=1;whiteSpace=wrap;html=1;" vertex="1" parent="1">
                    <mxGeometry x="130" y="270" width="90" height="40" as="geometry"/>
                </mxCell>
                <mxCell id="5" value="Button Bearbeiten" style="rounded=1;whiteSpace=wrap;html=1;" vertex="1" parent="1">
                    <mxGeometry x="235" y="270" width="90" height="40" as="geometry"/>
                </mxCell>
                <mxCell id="6" value="Filmtitel" style="text;html=1;strokeColor=none;fillColor=none;align=center;verticalAlign=middle;whiteSpace=wrap;rounded=0;" vertex="1" parent="1">
                    <mxGeometry x="120" y="175" width="100" height="30" as="geometry"/>
                </mxCell>
            </root>
        </mxGraphModel>
    </diagram>
</mxfile>